Coordinates
version=1
nRows=15
nColumns=42
inDegrees=yes

Units are S.I. units (second, meters, Newtons, ...)
If the header above contains a line with 'inDegrees', this indicates whether rotational values are in degrees (yes) or radians (no).

endheader
time	pelvis_tilt	pelvis_list	pelvis_rotation	pelvis_tx	pelvis_ty	pelvis_tz	hip_flexion_r	hip_adduction_r	hip_rotation_r	knee_angle_r	knee_adduction_r	knee_angle_r_beta	ankle_angle_r	subtalar_angle_r	mtp_angle_r	hip_flexion_l	hip_adduction_l	hip_rotation_l	knee_angle_l	knee_adduction_l	knee_angle_l_beta	ankle_angle_l	subtalar_angle_l	mtp_angle_l	lumbar_extension	lumbar_bending	lumbar_rotation	arm_flex_r	arm_add_r	arm_rot_r	elbow_flex_r	pro_sup_r	wrist_flex_r	wrist_dev_r	arm_flex_l	arm_add_l	arm_rot_l	elbow_flex_l	pro_sup_l	wrist_flex_l	wrist_dev_l
      0.30000000	     19.34129004	      4.79169591	      5.40770423	     -1.55813564	      0.89873452	     -0.02155247	      6.43391988	     -4.27782632	    -24.54394042	     35.33991207	     -6.86244992	      0.61679782	     15.26236365	     10.08936476	     -9.45601728	    -25.38437017	      0.14625985	     -4.51452056	     47.66036316	     -0.71980784	      0.83183026	     -0.01685889	    -13.53487220	     -9.45601728	    -41.39710319	     -1.23877282	     -3.91485338	      2.32965209	     -6.12040372	    -34.66945644	     28.10976736	     90.00000001	      0.00000000	      0.00000000	      8.55516795	     -7.82312922	    -31.30381741	     37.99287584	     90.00000001	      0.00000000	      0.00000000
      0.31000000	     19.49772043	      4.56764584	      5.21908791	     -1.54960479	      0.89983020	     -0.02028565	      5.61670721	     -3.82721460	    -24.96077015	     35.14025930	     -7.10401147	      0.61331322	     15.95164798	     10.64161475	     -9.40952224	    -24.32062730	     -0.01685412	     -4.01656498	     50.06990080	     -0.57773687	      0.87388463	     -0.48281856	    -14.95232596	     -9.40952224	    -41.53768823	     -1.07684335	     -3.82484028	      2.68327787	     -6.21208682	    -34.18631689	     28.55782267	     90.00000001	      0.00000000	      0.00000000	      8.31862452	     -7.71765245	    -31.38294411	     37.81395473	     90.00000001	      0.00000000	      0.00000000
      0.32000000	     19.67151548	      4.49243990	      5.05977898	     -1.54130194	      0.90106759	     -0.01930948	      4.68539672	     -3.62134485	    -25.24518048	     34.84344915	     -7.10792821	      0.60813291	     16.56357100	     11.19531149	     -9.37907559	    -23.22506950	      0.06578964	     -3.59311842	     52.34281553	     -0.63788948	      0.91355447	     -0.51292153	    -16.26961437	     -9.37907559	    -41.74666575	     -1.01675241	     -3.80754478	      3.06279118	     -6.31954098	    -33.70574139	     29.00174967	     90.00000001	      0.00000000	      0.00000000	      8.13283161	     -7.58739693	    -31.40603788	     37.65894435	     90.00000001	      0.00000000	      0.00000000
      0.33000000	     19.78905457	      4.41160123	      4.91504241	     -1.53316116	      0.90208489	     -0.01811846	      4.00926174	     -3.40663168	    -26.15635028	     34.77547544	     -7.61575067	      0.60694655	     17.31457165	     12.78895565	     -9.26680813	    -22.00147617	      0.03462147	     -2.87062503	     54.60175977	     -0.24501591	      0.95298049	     -0.43513629	    -17.66513564	     -9.26680813	    -41.90835605	     -1.00300195	     -3.76637410	      3.25725719	     -6.50561435	    -32.05193276	     29.58826956	     90.00000001	      0.00000000	      0.00000000	      8.00648615	     -7.50293170	    -31.47925892	     37.50837594	     90.00000001	      0.00000000	      0.00000000
      0.34000000	     19.93699216	      4.30634891	      4.76910414	     -1.52522298	      0.90319951	     -0.01708710	      3.14980755	     -3.12998086	    -26.16105061	     34.52178156	     -7.55814153	      0.60251875	     17.93625743	     13.02980124	     -9.23153778	    -20.72291014	      0.01692312	     -2.96593862	     56.72901175	     -0.52768070	      0.99010804	      0.28279893	    -18.16622866	     -9.23153778	    -42.12104691	     -0.94500094	     -3.69334588	      3.70206898	     -6.58559863	    -31.62336616	     30.02800872	     90.00000001	      0.00000000	      0.00000000	      7.89135803	     -7.38806629	    -31.40143045	     37.38379577	     90.00000001	      0.00000000	      0.00000000
      0.35000000	     20.07845551	      4.28142318	      4.64903507	     -1.51748354	      0.90436132	     -0.01617816	      2.27052395	     -2.96411834	    -26.09601210	     34.24201928	     -7.43361877	      0.59763598	     18.40518218	     13.21676613	     -9.20601299	    -19.40629719	      0.11812177	     -3.14829703	     58.64831380	     -0.94278658	      1.02360618	      1.26502395	    -18.58192794	     -9.20601299	    -42.35322749	     -0.95360019	     -3.63822811	      4.16067618	     -6.68819460	    -31.16101834	     30.44435492	     90.00000001	      0.00000000	      0.00000000	      7.84312716	     -7.27882877	    -31.30219841	     37.26213273	     90.00000001	      0.00000000	      0.00000000
      0.36000000	     20.13183344	      4.16853945	      4.56560681	     -1.50993546	      0.90527312	     -0.01521760	      1.54796357	     -2.67164743	    -26.00896690	     34.00589358	     -7.35703220	      0.59351481	     18.94713567	     13.37293745	     -9.17689453	    -17.89242356	      0.03024035	     -3.51202761	     60.53531831	     -1.35408770	      1.05654062	      2.54300098	    -18.72818470	     -9.17689453	    -42.50838723	     -0.89528336	     -3.54546114	      4.60999402	     -6.80198316	    -30.48028991	     30.89495797	     90.00000001	      0.00000000	      0.00000000	      7.82368430	     -7.17313155	    -31.16272783	     37.12732815	     90.00000001	      0.00000000	      0.00000000
      0.37000000	     20.12370643	      3.95074708	      4.40738427	     -1.50257570	      0.90593773	     -0.01393542	      1.01711649	     -2.21340702	    -25.93618404	     33.85553146	     -7.46978808	      0.59089049	     19.47591285	     13.47375020	     -9.13256252	    -16.26219934	     -0.25976998	     -4.04247360	     62.32279099	     -1.65347082	      1.08773790	      4.06873274	    -18.81847473	     -9.13256252	    -42.59535159	     -0.82678603	     -3.27914330	      4.99649503	     -6.96484787	    -29.27288713	     31.37513256	     90.00000001	      0.00000000	      0.00000000	      7.85130789	     -7.07771260	    -30.96872857	     36.97020423	     90.00000001	      0.00000000	      0.00000000
      0.38000000	     20.17883859	      3.91839445	      4.29182181	     -1.49535337	      0.90687055	     -0.01302940	      0.29910052	     -2.04552354	    -25.73154977	     33.60589168	     -7.32382514	      0.58653346	     19.87884332	     13.50341429	     -9.09334648	    -14.73186517	     -0.21547157	     -4.54556542	     63.72985901	     -2.18859494	      1.11229587	      5.37171344	    -18.91584875	     -9.09334648	    -42.78114107	     -0.87079408	     -3.16665859	      5.45518182	     -7.11868423	    -28.31385077	     31.82813284	     90.00000001	      0.00000000	      0.00000000	      7.90818041	     -6.97567414	    -30.78176457	     36.86619807	     90.00000001	      0.00000000	      0.00000000
      0.39000000	     20.19541266	      3.88604509	      4.15035229	     -1.48825467	      0.90769671	     -0.01209402	     -0.35175500	     -1.86793524	    -25.49866223	     33.36468842	     -7.20870833	      0.58232367	     20.28445812	     13.49869171	     -9.05264847	    -13.14384744	     -0.16642779	     -5.10537609	     64.93407950	     -2.72197244	      1.13331348	      6.62239103	    -18.96419095	     -9.05264847	    -42.93367430	     -0.94956801	     -2.99867121	      5.93057399	     -7.27696401	    -27.32662797	     32.26054623	     90.00000001	      0.00000000	      0.00000000	      7.98871789	     -6.86870401	    -30.56719400	     36.77376566	     90.00000001	      0.00000000	      0.00000000
      0.40000000	     20.19496245	      3.92567149	      4.06023470	     -1.48127178	      0.90853886	     -0.01135610	     -1.03958557	     -1.79737441	    -25.27083041	     33.04317855	     -7.01006511	      0.57671226	     20.64528103	     13.53057588	     -9.02319361	    -11.53911131	      0.03203932	     -5.55434739	     65.87381441	     -3.29353117	      1.14971495	      7.69617799	    -19.03131223	     -9.02319361	    -43.07236222	     -1.06104274	     -2.92226373	      6.48767517	     -7.40583378	    -26.60993892	     32.66273897	     90.00000001	      0.00000000	      0.00000000	      8.08314789	     -6.78114819	    -30.37391451	     36.69660163	     90.00000001	      0.00000000	      0.00000000
      0.41000000	     20.19489683	      3.89397019	      3.82014342	     -1.47438277	      0.90924797	     -0.01028720	     -1.59124058	     -1.65146320	    -25.12453398	     32.88801167	     -7.01345010	      0.57400409	     20.98675777	     13.58697641	     -8.94432811	     -9.94715274	      0.08816844	     -6.01690259	     66.60798053	     -3.60021125	      1.16252857	      8.56266112	    -19.01685412	     -8.94432811	    -43.23112596	     -1.22476202	     -2.65321629	      6.88903229	     -7.65970072	    -24.98012626	     33.14010850	     90.00000001	      0.00000000	      0.00000000	      8.19227349	     -6.66364392	    -30.07299578	     36.66496402	     90.00000001	      0.00000000	      0.00000000
      0.42000000	     20.19466104	      3.94891169	      3.68448828	     -1.46753300	      0.91000944	     -0.00948231	     -2.25030354	     -1.63236884	    -24.98456037	     32.59735411	     -6.86140106	      0.56893116	     21.32702335	     13.64647873	     -8.92042953	     -8.38432800	      0.33922286	     -6.26824101	     67.04696926	     -3.96306126	      1.17019037	      9.25752882	    -19.02558048	     -8.92042953	    -43.38077410	     -1.40277069	     -2.52714213	      7.51401991	     -7.71984424	    -24.56798206	     33.44242864	     90.00000001	      0.00000000	      0.00000000	      8.30403596	     -6.57991284	    -29.92055494	     36.63017360	     90.00000001	      0.00000000	      0.00000000
      0.43000000	     20.25447195	      4.02204158	      3.44851466	     -1.46076804	      0.91079362	     -0.00858204	     -2.90157265	     -1.66489439	    -24.93908930	     32.42040007	     -6.81712870	      0.56584273	     21.47694472	     13.64627453	     -8.90572872	     -6.92927889	      0.56163954	     -6.44729565	     67.25335486	     -4.03474096	      1.17379248	      9.63824669	    -19.01520479	     -8.90572872	    -43.59273604	     -1.65763667	     -2.28638932	      8.16424152	     -7.78138934	    -24.26094343	     33.73177037	     90.00000001	      0.00000000	      0.00000000	      8.48915915	     -6.42899117	    -29.78283973	     36.68414269	     90.00000001	      0.00000000	      0.00000000
      0.44000000	     20.07446382	      3.93053208	      3.33667078	     -1.45400466	      0.91103071	     -0.00787472	     -3.29739482	     -1.49790150	    -24.90900602	     32.18476077	     -6.76833013	      0.56173004	     22.25695780	     14.16918659	     -8.85708566	     -5.16754598	      0.64208606	     -6.57809622	     67.34162818	     -4.23531512	      1.17533314	     10.28373652	    -18.93373077	     -8.85708566	    -43.52655985	     -1.70585037	     -2.09029802	      8.66852481	     -8.07571190	    -22.64271787	     34.06541706	     90.00000001	      0.00000000	      0.00000000	      8.59283487	     -6.34527737	    -29.47742283	     36.54989466	     90.00000001	      0.00000000	      0.00000000
